<svg xmlns="http://www.w3.org/2000/svg" width="1600" height="1000" viewBox="0 0 1600 1000" role="img" aria-labelledby="title desc">
<title id="title">ForgeLoop — Verification-Driven Engineering</title>
<desc id="desc">Dark technical infographic showing ForgeLoop planning, verification, diagnosis, correction, stall detection, settlement criteria, and validator-backed completion.</desc>
<defs>
  <linearGradient id="bg" x1="0" y1="0" x2="1" y2="1"><stop offset="0" stop-color="#020817"/><stop offset=".52" stop-color="#071122"/><stop offset="1" stop-color="#020713"/></linearGradient>
  <linearGradient id="brand" x1="0" y1="0" x2="1" y2="0"><stop offset="0" stop-color="#38bdf8"/><stop offset=".48" stop-color="#8b5cf6"/><stop offset="1" stop-color="#22d3ee"/></linearGradient>
  <linearGradient id="loopGrad" x1="0" y1="0" x2="1" y2="0"><stop offset="0" stop-color="#38bdf8"/><stop offset=".25" stop-color="#22c55e"/><stop offset=".52" stop-color="#facc15"/><stop offset=".76" stop-color="#22c55e"/><stop offset="1" stop-color="#a855f7"/></linearGradient>
  <radialGradient id="glow"><stop offset="0" stop-color="#2563eb" stop-opacity=".18"/><stop offset="1" stop-color="#2563eb" stop-opacity="0"/></radialGradient>
  <filter id="shadow" x="-20%" y="-20%" width="140%" height="140%"><feDropShadow dx="0" dy="12" stdDeviation="18" flood-color="#000" flood-opacity=".42"/></filter>
  <filter id="soft"><feGaussianBlur stdDeviation="18"/></filter>
  <marker id="arrow" markerWidth="9" markerHeight="9" refX="7" refY="4.5" orient="auto"><path d="M0 0L9 4.5 0 9Z" fill="#94a3b8"/></marker>
  <marker id="arrowGreen" markerWidth="9" markerHeight="9" refX="7" refY="4.5" orient="auto"><path d="M0 0L9 4.5 0 9Z" fill="#22c55e"/></marker>
  <style>
    .ui{font-family:Inter,ui-sans-serif,-apple-system,BlinkMacSystemFont,"Segoe UI",sans-serif}.mono{font-family:ui-monospace,SFMono-Regular,Menlo,Monaco,Consolas,monospace}.white{fill:#f8fafc}.muted{fill:#94a3b8}.dim{fill:#64748b}.tiny{font-size:14px}.small{font-size:17px}.body{font-size:20px}.label{font-size:18px;font-weight:700;letter-spacing:.5px}.panelTitle{font-size:21px;font-weight:800}.nodeTitle{font-size:22px;font-weight:850}.nodeSub{font-size:16px;fill:#cbd5e1}.caps{font-size:14px;font-weight:800;letter-spacing:1.8px}
  </style>
</defs>
<rect width="1600" height="1000" rx="32" fill="url(#bg)"/>
<circle cx="290" cy="110" r="220" fill="url(#glow)"/>
<circle cx="1380" cy="420" r="280" fill="url(#glow)" opacity=".65"/>
<g opacity=".09" stroke="#334155"><path d="M0 100H1600M0 200H1600M0 300H1600M0 400H1600M0 500H1600M0 600H1600M0 700H1600M0 800H1600M0 900H1600"/><path d="M100 0V1000M200 0V1000M300 0V1000M400 0V1000M500 0V1000M600 0V1000M700 0V1000M800 0V1000M900 0V1000M1000 0V1000M1100 0V1000M1200 0V1000M1300 0V1000M1400 0V1000M1500 0V1000"/></g>

<!-- Header -->
<g class="ui">
  <g transform="translate(74 43)">
    <path d="M22 64C22 28 63 22 93 50l25 24 25-24c30-28 71-22 71 14s-41 42-71 14l-25-24-25 24C63 106 22 100 22 64Z" fill="none" stroke="url(#brand)" stroke-width="9" stroke-linecap="round" filter="url(#shadow)"/>
    <circle cx="118" cy="64" r="3" fill="#e2e8f0"/>
  </g>
  <text x="325" y="112" font-size="82" font-weight="900" letter-spacing="-3" fill="#f8fafc">FORGE<tspan fill="url(#brand)">LOOP</tspan></text>
  <text x="328" y="150" font-size="23" font-weight="800" fill="#60a5fa" letter-spacing="3.2">VERIFICATION-DRIVEN ENGINEERING</text>

  <line x1="965" y1="40" x2="965" y2="178" stroke="#475569"/>
  <text x="1005" y="82" font-size="33" font-weight="850" fill="#f8fafc">Close the Loop.</text>
  <text x="1005" y="120" font-size="33" font-weight="850" fill="#f8fafc">Prove Every Step.</text>
  <text x="1005" y="151" class="small muted">Deterministic, event-sourced engineering:</text>
  <text x="1005" y="177" font-size="19" font-weight="800"><tspan fill="#38bdf8">Plan</tspan><tspan fill="#94a3b8"> → </tspan><tspan fill="#22c55e">Verify</tspan><tspan fill="#94a3b8"> → </tspan><tspan fill="#facc15">Correct</tspan><tspan fill="#94a3b8"> → </tspan><tspan fill="#22c55e">Verify</tspan><tspan fill="#94a3b8">.</tspan></text>
</g>

<!-- Capability strip -->
<g class="ui" transform="translate(55 205)">
  <rect width="1490" height="78" rx="19" fill="#081221" stroke="#334155"/>
  <g transform="translate(25 14)"><path d="M24 0l21 9v17c0 15-10 25-21 30C13 51 3 41 3 26V9Z" fill="none" stroke="#38bdf8" stroke-width="3"/><path d="M14 26l7 7 14-16" fill="none" stroke="#38bdf8" stroke-width="3"/><text x="62" y="22" class="label white">Protocol v1</text><text x="62" y="45" class="small muted">Stable • v1 compatible</text></g>
  <line x1="300" y1="13" x2="300" y2="65" stroke="#334155"/>
  <g transform="translate(330 14)"><rect x="4" y="3" width="35" height="47" rx="4" fill="none" stroke="#60a5fa" stroke-width="3"/><path d="M12 15h19M12 24h19M12 33h14" stroke="#60a5fa" stroke-width="3"/><text x="58" y="22" class="label white">Event-Sourced</text><text x="58" y="45" class="small muted">Append-only ledger</text></g>
  <line x1="600" y1="13" x2="600" y2="65" stroke="#334155"/>
  <g transform="translate(630 14)"><circle cx="24" cy="25" r="20" fill="none" stroke="#22c55e" stroke-width="3"/><path d="M17 26l6 6 12-15" fill="none" stroke="#22c55e" stroke-width="3"/><text x="58" y="22" class="label white">Deterministic Loop</text><text x="58" y="45" class="small muted">No hidden state</text></g>
  <line x1="894" y1="13" x2="894" y2="65" stroke="#334155"/>
  <g transform="translate(924 14)"><path d="M3 46h42M8 39V24M18 39V15M28 39V29M38 39V7" stroke="#facc15" stroke-width="3"/><path d="M7 20l11-9 10 9L41 4" fill="none" stroke="#facc15" stroke-width="2.5"/><text x="58" y="22" class="label white">Stall Detection</text><text x="58" y="45" class="small muted">No-information-gain stalls</text></g>
  <line x1="1190" y1="13" x2="1190" y2="65" stroke="#334155"/>
  <g transform="translate(1220 14)"><circle cx="24" cy="25" r="20" fill="none" stroke="#fb7185" stroke-width="3"/><circle cx="24" cy="25" r="10" fill="none" stroke="#fb7185" stroke-width="3"/><circle cx="24" cy="25" r="3" fill="#fb7185"/><text x="58" y="22" class="label white">Decision Criteria</text><text x="58" y="45" class="small muted">Evidence-driven criteria</text></g>
</g>

<!-- Main flow box -->
<g class="ui" transform="translate(55 305)">
  <rect width="1490" height="350" rx="20" fill="#050d19" stroke="#334155"/>
  <text x="85" y="42" class="caps" fill="#38bdf8">PLAN</text><text x="344" y="42" class="caps" fill="#22c55e">VERIFY</text><text x="675" y="42" class="caps" fill="#facc15">CORRECT</text><text x="1020" y="42" class="caps" fill="#22c55e">VERIFY AGAIN</text><text x="1328" y="42" class="caps" fill="#c084fc">COMPLETE</text>
  <path d="M190 36H300M442 36H625M805 36H970M1140 36H1290" stroke="#94a3b8" stroke-width="2" marker-end="url(#arrow)"/>

  <!-- PLAN -->
  <g transform="translate(25 66)"><rect width="245" height="245" rx="18" fill="#071a2c" stroke="#38bdf8" stroke-width="2"/><path d="M35 35h36l14 14v46H35Z" fill="none" stroke="#93c5fd" stroke-width="3"/><path d="M71 35v15h14" fill="none" stroke="#93c5fd" stroke-width="3"/><text x="105" y="59" class="nodeTitle white">Contract</text><text x="105" y="84" class="nodeSub">scope + criteria</text><line x1="25" y1="120" x2="220" y2="120" stroke="#334155"/><path d="M38 151h32v32H38Z" fill="none" stroke="#cbd5e1" stroke-width="3"/><path d="M46 160l5 5 9-10M46 174l5 5 9-10" fill="none" stroke="#cbd5e1" stroke-width="2"/><text x="85" y="166" class="body white">Checks</text><text x="85" y="192" class="small muted">verification plan</text></g>

  <!-- VERIFY -->
  <g transform="translate(295 66)"><rect width="245" height="245" rx="18" fill="#082518" stroke="#22c55e" stroke-width="2"/><circle cx="70" cy="77" r="36" fill="none" stroke="#4ade80" stroke-width="4"/><path d="M51 78l14 14 27-34" fill="none" stroke="#4ade80" stroke-width="5"/><text x="125" y="60" class="nodeTitle white">Run Checks</text><text x="125" y="88" class="small" fill="#86efac">○ PASS</text><text x="125" y="113" class="small" fill="#facc15">○ FAIL</text><text x="125" y="138" class="small" fill="#fb7185">○ BLOCKED</text><line x1="25" y1="165" x2="220" y2="165" stroke="#255f39"/><text x="122" y="197" text-anchor="middle" class="body white">Evidence Recorded</text><text x="122" y="221" text-anchor="middle" class="small muted">every verification cycle</text></g>

  <!-- CORRECT -->
  <g transform="translate(565 66)"><rect width="315" height="245" rx="18" fill="#2a2104" stroke="#facc15" stroke-width="2"/><circle cx="55" cy="62" r="25" fill="none" stroke="#facc15" stroke-width="3"/><path d="M55 30v10M28 42l8 7M82 42l-8 7M55 84v9" stroke="#facc15" stroke-width="3"/><text x="98" y="57" class="nodeTitle white">Diagnose First</text><text x="98" y="83" class="small muted">hypothesis + evidence</text><rect x="28" y="112" width="259" height="58" rx="10" fill="#171303" stroke="#eab308"/><text x="157" y="138" text-anchor="middle" font-size="18" font-weight="900" fill="#fde047">NO RETRY</text><text x="157" y="160" text-anchor="middle" font-size="15" font-weight="800" fill="#fde047">WITHOUT INFORMATION GAIN</text><text x="157" y="204" text-anchor="middle" class="small white">Then apply the safest fix</text><text x="157" y="228" text-anchor="middle" class="mono tiny" fill="#cbd5e1">nextSafeAction</text></g>

  <!-- VERIFY AGAIN -->
  <g transform="translate(905 66)"><rect width="245" height="245" rx="18" fill="#082518" stroke="#22c55e" stroke-width="2"/><circle cx="68" cy="77" r="36" fill="none" stroke="#4ade80" stroke-width="4"/><path d="M49 60a27 27 0 1 1-3 31" fill="none" stroke="#4ade80" stroke-width="4" marker-end="url(#arrowGreen)"/><text x="123" y="60" class="nodeTitle white">Re-run</text><text x="123" y="88" class="small" fill="#86efac">○ PASS</text><text x="123" y="113" class="small" fill="#facc15">○ FAIL</text><text x="123" y="138" class="small" fill="#fb7185">○ BLOCKED</text><line x1="25" y1="165" x2="220" y2="165" stroke="#255f39"/><text x="122" y="197" text-anchor="middle" class="body white">New Evidence</text><text x="122" y="221" text-anchor="middle" class="small muted">new verification cycle</text></g>

  <!-- COMPLETE -->
  <g transform="translate(1175 66)"><rect width="290" height="245" rx="18" fill="#1c1030" stroke="#c084fc" stroke-width="2"/><path d="M58 37h55v16c0 30-15 50-27 50S58 83 58 53Z" fill="none" stroke="#c084fc" stroke-width="4"/><path d="M58 50H43c0 19 8 30 20 34M113 50h15c0 19-8 30-20 34M85 103v21M65 124h40" fill="none" stroke="#c084fc" stroke-width="4"/><text x="170" y="70" class="nodeTitle white">VALID</text><text x="170" y="98" class="small muted">checks pass</text><line x1="25" y1="155" x2="265" y2="155" stroke="#5b3c78"/><text x="145" y="192" text-anchor="middle" class="body white">Validator-backed</text><text x="145" y="218" text-anchor="middle" class="small" fill="#d8b4fe">ready &amp; complete</text></g>

  <path d="M1028 322C1030 342 1005 349 972 349H438C405 349 390 337 390 320" fill="none" stroke="#94a3b8" stroke-width="2" marker-end="url(#arrow)"/>
</g>

<!-- Three feature panels -->
<g class="ui" transform="translate(55 680)">
  <g><rect width="475" height="173" rx="18" fill="#06101d" stroke="#334155"/><text x="28" y="38" class="panelTitle" fill="#38bdf8">DIAGNOSIS LEDGER</text><text x="28" y="72" class="small white">✓ Append-only DIAGNOSIS_RECORDED events</text><text x="28" y="100" class="small white">✓ Hypothesis + evidence + information gain</text><text x="28" y="128" class="small white">✓ Idempotent within the same cycle</text><text x="28" y="156" class="small muted">Authority lives in events.ndjson</text></g>
  <g transform="translate(507 0)"><rect width="475" height="173" rx="18" fill="#06101d" stroke="#334155"/><text x="28" y="38" class="panelTitle" fill="#4ade80">PROGRESS &amp; STALL DETECTION</text><text x="28" y="72" class="small white">✓ forgeloop progress is read-only</text><text x="28" y="100" class="small white">✓ ADVANCING / WATCH / STALLED</text><text x="28" y="128" class="small white">✓ Requirement-aware repeated-failure signals</text><text x="28" y="156" class="small muted">STALLED → CHANGE_STRATEGY</text></g>
  <g transform="translate(1014 0)"><rect width="476" height="173" rx="18" fill="#06101d" stroke="#334155"/><text x="28" y="38" class="panelTitle" fill="#c084fc">DECISION SETTLEMENT CRITERIA</text><text x="28" y="72" class="small white">✓ Contract-fingerprint-bound criteria</text><text x="28" y="100" class="small white">✓ Single or multiple criteria surfaced in next</text><text x="28" y="128" class="small white">✓ Criteria guide; they do not resolve decisions</text><text x="28" y="156" class="small muted">Evidence settles uncertainty</text></g>
</g>

<!-- Footer strip -->
<g class="ui" transform="translate(55 875)">
  <rect width="1490" height="73" rx="18" fill="#06101d" stroke="#334155"/>
  <g transform="translate(28 13)"><text y="20" class="caps" fill="#93c5fd">PROTOCOL V1</text><text y="45" class="tiny muted">Stable • no schema break</text></g>
  <line x1="250" y1="13" x2="250" y2="60" stroke="#334155"/>
  <g transform="translate(280 13)"><text y="20" class="caps" fill="#cbd5e1">BACKWARD COMPATIBLE</text><text y="45" class="tiny muted">Legacy tasks continue safely</text></g>
  <line x1="560" y1="13" x2="560" y2="60" stroke="#334155"/>
  <g transform="translate(590 13)"><text y="20" class="caps" fill="#60a5fa">SINGLE SOURCE OF TRUTH</text><text y="45" class="tiny muted">events.ndjson is chronology authority</text></g>
  <line x1="900" y1="13" x2="900" y2="60" stroke="#334155"/>
  <g transform="translate(930 13)"><text y="20" class="caps" fill="#86efac">DETERMINISTIC</text><text y="45" class="tiny muted">No LLM confidence • no hidden state</text></g>
  <line x1="1190" y1="13" x2="1190" y2="60" stroke="#334155"/>
  <g transform="translate(1220 13)"><text y="20" class="caps" fill="#e2e8f0">AGENT + HUMAN FRIENDLY</text><text y="45" class="tiny muted">Clear next actions across harnesses</text></g>
</g>

<g class="ui"><text x="800" y="974" text-anchor="middle" font-size="21" font-weight="800" fill="#cbd5e1">Build • Verify • Learn • Repeat — That’s the Loop.</text></g>
</svg>
