<svg xmlns="http://www.w3.org/2000/svg" width="2400" height="1350" viewBox="0 0 2400 1350">
<defs>
  <linearGradient id="bgGrad" x1="0" y1="0" x2="1" y2="1">
    <stop offset="0%" stop-color="#061018"/>
    <stop offset="55%" stop-color="#08121C"/>
    <stop offset="100%" stop-color="#061019"/>
  </linearGradient>
  <radialGradient id="glow1" cx="50%" cy="50%" r="50%">
    <stop offset="0%" stop-color="#31D7FF" stop-opacity=".14"/>
    <stop offset="100%" stop-color="#31D7FF" stop-opacity="0"/>
  </radialGradient>
  <radialGradient id="glow2" cx="50%" cy="50%" r="50%">
    <stop offset="0%" stop-color="#B78CFF" stop-opacity=".10"/>
    <stop offset="100%" stop-color="#B78CFF" stop-opacity="0"/>
  </radialGradient>
  <filter id="shadow" x="-20%" y="-20%" width="140%" height="140%">
    <feDropShadow dx="0" dy="12" stdDeviation="18" flood-color="#000000" flood-opacity=".35"/>
  </filter>
  <marker id="arrow" markerWidth="10" markerHeight="10" refX="8" refY="5" orient="auto" markerUnits="strokeWidth">
    <path d="M0,0 L10,5 L0,10 z" fill="#4D7187"/>
  </marker>
</defs>
<rect width="2400" height="1350" fill="url(#bgGrad)"/>
<circle cx="490" cy="260" r="430" fill="url(#glow1)"/>
<circle cx="1940" cy="830" r="520" fill="url(#glow2)"/>

<line x1="0" y1="0" x2="0" y2="1350" stroke="#0E2230" stroke-width="1" opacity=".28"/>
<line x1="80" y1="0" x2="80" y2="1350" stroke="#0E2230" stroke-width="1" opacity=".28"/>
<line x1="160" y1="0" x2="160" y2="1350" stroke="#0E2230" stroke-width="1" opacity=".28"/>
<line x1="240" y1="0" x2="240" y2="1350" stroke="#0E2230" stroke-width="1" opacity=".28"/>
<line x1="320" y1="0" x2="320" y2="1350" stroke="#0E2230" stroke-width="1" opacity=".28"/>
<line x1="400" y1="0" x2="400" y2="1350" stroke="#0E2230" stroke-width="1" opacity=".28"/>
<line x1="480" y1="0" x2="480" y2="1350" stroke="#0E2230" stroke-width="1" opacity=".28"/>
<line x1="560" y1="0" x2="560" y2="1350" stroke="#0E2230" stroke-width="1" opacity=".28"/>
<line x1="640" y1="0" x2="640" y2="1350" stroke="#0E2230" stroke-width="1" opacity=".28"/>
<line x1="720" y1="0" x2="720" y2="1350" stroke="#0E2230" stroke-width="1" opacity=".28"/>
<line x1="800" y1="0" x2="800" y2="1350" stroke="#0E2230" stroke-width="1" opacity=".28"/>
<line x1="880" y1="0" x2="880" y2="1350" stroke="#0E2230" stroke-width="1" opacity=".28"/>
<line x1="960" y1="0" x2="960" y2="1350" stroke="#0E2230" stroke-width="1" opacity=".28"/>
<line x1="1040" y1="0" x2="1040" y2="1350" stroke="#0E2230" stroke-width="1" opacity=".28"/>
<line x1="1120" y1="0" x2="1120" y2="1350" stroke="#0E2230" stroke-width="1" opacity=".28"/>
<line x1="1200" y1="0" x2="1200" y2="1350" stroke="#0E2230" stroke-width="1" opacity=".28"/>
<line x1="1280" y1="0" x2="1280" y2="1350" stroke="#0E2230" stroke-width="1" opacity=".28"/>
<line x1="1360" y1="0" x2="1360" y2="1350" stroke="#0E2230" stroke-width="1" opacity=".28"/>
<line x1="1440" y1="0" x2="1440" y2="1350" stroke="#0E2230" stroke-width="1" opacity=".28"/>
<line x1="1520" y1="0" x2="1520" y2="1350" stroke="#0E2230" stroke-width="1" opacity=".28"/>
<line x1="1600" y1="0" x2="1600" y2="1350" stroke="#0E2230" stroke-width="1" opacity=".28"/>
<line x1="1680" y1="0" x2="1680" y2="1350" stroke="#0E2230" stroke-width="1" opacity=".28"/>
<line x1="1760" y1="0" x2="1760" y2="1350" stroke="#0E2230" stroke-width="1" opacity=".28"/>
<line x1="1840" y1="0" x2="1840" y2="1350" stroke="#0E2230" stroke-width="1" opacity=".28"/>
<line x1="1920" y1="0" x2="1920" y2="1350" stroke="#0E2230" stroke-width="1" opacity=".28"/>
<line x1="2000" y1="0" x2="2000" y2="1350" stroke="#0E2230" stroke-width="1" opacity=".28"/>
<line x1="2080" y1="0" x2="2080" y2="1350" stroke="#0E2230" stroke-width="1" opacity=".28"/>
<line x1="2160" y1="0" x2="2160" y2="1350" stroke="#0E2230" stroke-width="1" opacity=".28"/>
<line x1="2240" y1="0" x2="2240" y2="1350" stroke="#0E2230" stroke-width="1" opacity=".28"/>
<line x1="2320" y1="0" x2="2320" y2="1350" stroke="#0E2230" stroke-width="1" opacity=".28"/>
<line x1="0" y1="0" x2="2400" y2="0" stroke="#0E2230" stroke-width="1" opacity=".28"/>
<line x1="0" y1="80" x2="2400" y2="80" stroke="#0E2230" stroke-width="1" opacity=".28"/>
<line x1="0" y1="160" x2="2400" y2="160" stroke="#0E2230" stroke-width="1" opacity=".28"/>
<line x1="0" y1="240" x2="2400" y2="240" stroke="#0E2230" stroke-width="1" opacity=".28"/>
<line x1="0" y1="320" x2="2400" y2="320" stroke="#0E2230" stroke-width="1" opacity=".28"/>
<line x1="0" y1="400" x2="2400" y2="400" stroke="#0E2230" stroke-width="1" opacity=".28"/>
<line x1="0" y1="480" x2="2400" y2="480" stroke="#0E2230" stroke-width="1" opacity=".28"/>
<line x1="0" y1="560" x2="2400" y2="560" stroke="#0E2230" stroke-width="1" opacity=".28"/>
<line x1="0" y1="640" x2="2400" y2="640" stroke="#0E2230" stroke-width="1" opacity=".28"/>
<line x1="0" y1="720" x2="2400" y2="720" stroke="#0E2230" stroke-width="1" opacity=".28"/>
<line x1="0" y1="800" x2="2400" y2="800" stroke="#0E2230" stroke-width="1" opacity=".28"/>
<line x1="0" y1="880" x2="2400" y2="880" stroke="#0E2230" stroke-width="1" opacity=".28"/>
<line x1="0" y1="960" x2="2400" y2="960" stroke="#0E2230" stroke-width="1" opacity=".28"/>
<line x1="0" y1="1040" x2="2400" y2="1040" stroke="#0E2230" stroke-width="1" opacity=".28"/>
<line x1="0" y1="1120" x2="2400" y2="1120" stroke="#0E2230" stroke-width="1" opacity=".28"/>
<line x1="0" y1="1200" x2="2400" y2="1200" stroke="#0E2230" stroke-width="1" opacity=".28"/>
<line x1="0" y1="1280" x2="2400" y2="1280" stroke="#0E2230" stroke-width="1" opacity=".28"/>
<text x="95" y="105" fill="#31D7FF" fill-opacity="1" font-family="Inter,Segoe UI,Arial,sans-serif" font-size="30" font-weight="800" text-anchor="start">FORGELOOP</text>
<text x="95" y="162" fill="#ECF6FF" fill-opacity="1" font-family="Inter,Segoe UI,Arial,sans-serif" font-size="58" font-weight="800" text-anchor="start">Architecture</text>
<text x="95" y="207" fill="#8EABC0" fill-opacity="1" font-family="Inter,Segoe UI,Arial,sans-serif" font-size="25" font-weight="500" text-anchor="start">Portable, verifiable engineering protocol for AI coding environments</text>
<rect x="1990" y="86" width="300" height="46" rx="23" fill="#31D7FF" fill-opacity="0.12" stroke="#31D7FF" stroke-width="0"/>
<text x="2140.0" y="117" fill="#31D7FF" fill-opacity="1" font-family="Inter,Segoe UI,Arial,sans-serif" font-size="21" font-weight="700" text-anchor="middle">main • v1.12.0</text>
<text x="105" y="290" fill="#8EABC0" fill-opacity="1" font-family="Inter,Segoe UI,Arial,sans-serif" font-size="20" font-weight="800" text-anchor="start">ENTRY SURFACES</text>
<text x="610" y="290" fill="#8EABC0" fill-opacity="1" font-family="Inter,Segoe UI,Arial,sans-serif" font-size="20" font-weight="800" text-anchor="start">PROTOCOL CONTROL PLANE</text>
<text x="1665" y="290" fill="#8EABC0" fill-opacity="1" font-family="Inter,Segoe UI,Arial,sans-serif" font-size="20" font-weight="800" text-anchor="start">STATE &amp; EVIDENCE</text>
<rect x="85" y="320" width="430" height="835" rx="30" fill="#0D1722" fill-opacity="1" stroke="#244153" stroke-width="2"/>
<text x="125" y="380" fill="#ECF6FF" fill-opacity="1" font-family="Inter,Segoe UI,Arial,sans-serif" font-size="32" font-weight="750" text-anchor="start">User / Host Request</text>
<text x="125" y="417" fill="#8EABC0" fill-opacity="1" font-family="Inter,Segoe UI,Arial,sans-serif" font-size="22" font-weight="500" text-anchor="start">Task enters through a compatible harness</text>
<rect x="125" y="465" width="350" height="110" rx="22" fill="#101D2A" fill-opacity="1" stroke="#31D7FF" stroke-width="2"/>
<text x="155" y="508" fill="#ECF6FF" fill-opacity="1" font-family="Inter,Segoe UI,Arial,sans-serif" font-size="27" font-weight="750" text-anchor="start">CLI</text>
<text x="155" y="542" fill="#8EABC0" fill-opacity="1" font-family="Inter,Segoe UI,Arial,sans-serif" font-size="20" font-weight="500" text-anchor="start">forgeloop</text>
<circle cx="438" cy="520" r="8" fill="#31D7FF"/>
<rect x="125" y="597" width="350" height="110" rx="22" fill="#101D2A" fill-opacity="1" stroke="#4F8CFF" stroke-width="2"/>
<text x="155" y="640" fill="#ECF6FF" fill-opacity="1" font-family="Inter,Segoe UI,Arial,sans-serif" font-size="27" font-weight="750" text-anchor="start">Integration API</text>
<text x="155" y="674" fill="#8EABC0" fill-opacity="1" font-family="Inter,Segoe UI,Arial,sans-serif" font-size="20" font-weight="500" text-anchor="start">src/integration.js</text>
<circle cx="438" cy="652" r="8" fill="#4F8CFF"/>
<rect x="125" y="729" width="350" height="110" rx="22" fill="#101D2A" fill-opacity="1" stroke="#B78CFF" stroke-width="2"/>
<text x="155" y="772" fill="#ECF6FF" fill-opacity="1" font-family="Inter,Segoe UI,Arial,sans-serif" font-size="27" font-weight="750" text-anchor="start">MCP Adapter</text>
<text x="155" y="806" fill="#8EABC0" fill-opacity="1" font-family="Inter,Segoe UI,Arial,sans-serif" font-size="20" font-weight="500" text-anchor="start">tool-facing integration</text>
<circle cx="438" cy="784" r="8" fill="#B78CFF"/>
<text x="125" y="885" fill="#ECF6FF" fill-opacity="1" font-family="Inter,Segoe UI,Arial,sans-serif" font-size="24" font-weight="750" text-anchor="start">Native agent adapters</text>
<rect x="125" y="925" width="158" height="52" rx="15" fill="#0B1822" fill-opacity="1" stroke="#284153" stroke-width="1"/>
<text x="204" y="958" fill="#C8DDEA" fill-opacity="1" font-family="Inter,Segoe UI,Arial,sans-serif" font-size="17" font-weight="650" text-anchor="middle">AGENTS.md</text>
<rect x="300" y="925" width="158" height="52" rx="15" fill="#0B1822" fill-opacity="1" stroke="#284153" stroke-width="1"/>
<text x="379" y="958" fill="#C8DDEA" fill-opacity="1" font-family="Inter,Segoe UI,Arial,sans-serif" font-size="17" font-weight="650" text-anchor="middle">CLAUDE.md</text>
<rect x="125" y="997" width="158" height="52" rx="15" fill="#0B1822" fill-opacity="1" stroke="#284153" stroke-width="1"/>
<text x="204" y="1030" fill="#C8DDEA" fill-opacity="1" font-family="Inter,Segoe UI,Arial,sans-serif" font-size="17" font-weight="650" text-anchor="middle">Cursor rules</text>
<rect x="300" y="997" width="158" height="52" rx="15" fill="#0B1822" fill-opacity="1" stroke="#284153" stroke-width="1"/>
<text x="379" y="1030" fill="#C8DDEA" fill-opacity="1" font-family="Inter,Segoe UI,Arial,sans-serif" font-size="17" font-weight="650" text-anchor="middle">Copilot instructions</text>
<text x="125" y="1088" fill="#8EABC0" fill-opacity="1" font-family="Inter,Segoe UI,Arial,sans-serif" font-size="18" font-weight="500" text-anchor="start">Vendor-neutral discovery shims</text>
<rect x="565" y="320" width="1030" height="835" rx="30" fill="#0D1722" fill-opacity="1" stroke="#2A5368" stroke-width="2"/>
<text x="610" y="380" fill="#ECF6FF" fill-opacity="1" font-family="Inter,Segoe UI,Arial,sans-serif" font-size="34" font-weight="800" text-anchor="start">Canonical ForgeLoop Protocol</text>
<text x="610" y="417" fill="#8EABC0" fill-opacity="1" font-family="Inter,Segoe UI,Arial,sans-serif" font-size="22" font-weight="500" text-anchor="start">Deterministic routing • checkpointed state • inspectable evidence</text>
<rect x="620" y="465" width="285" height="120" rx="22" fill="#101D2A" fill-opacity="1" stroke="#31D7FF" stroke-width="2"/>
<text x="644" y="512" fill="#31D7FF" fill-opacity="1" font-family="Inter,Segoe UI,Arial,sans-serif" font-size="24" font-weight="800" text-anchor="start">CONTRACT</text>
<text x="644" y="547" fill="#8EABC0" fill-opacity="1" font-family="Inter,Segoe UI,Arial,sans-serif" font-size="20" font-weight="500" text-anchor="start">Required gates</text>
<rect x="938" y="465" width="285" height="120" rx="22" fill="#101D2A" fill-opacity="1" stroke="#4F8CFF" stroke-width="2"/>
<text x="962" y="512" fill="#4F8CFF" fill-opacity="1" font-family="Inter,Segoe UI,Arial,sans-serif" font-size="24" font-weight="800" text-anchor="start">ROUTE</text>
<text x="962" y="547" fill="#8EABC0" fill-opacity="1" font-family="Inter,Segoe UI,Arial,sans-serif" font-size="20" font-weight="500" text-anchor="start">Guide selection</text>
<rect x="1256" y="465" width="285" height="120" rx="22" fill="#101D2A" fill-opacity="1" stroke="#4DE1A8" stroke-width="2"/>
<text x="1280" y="512" fill="#4DE1A8" fill-opacity="1" font-family="Inter,Segoe UI,Arial,sans-serif" font-size="24" font-weight="800" text-anchor="start">EVIDENCE</text>
<text x="1280" y="547" fill="#8EABC0" fill-opacity="1" font-family="Inter,Segoe UI,Arial,sans-serif" font-size="20" font-weight="500" text-anchor="start">Fingerprints</text>
<line x1="762" y1="585" x2="900" y2="655" stroke="#4D7187" stroke-opacity="1" stroke-width="3" marker-end="url(#arrow)"/>
<line x1="1080" y1="585" x2="1080" y2="655" stroke="#4D7187" stroke-opacity="1" stroke-width="3" marker-end="url(#arrow)"/>
<line x1="1398" y1="585" x2="1260" y2="655" stroke="#4D7187" stroke-opacity="1" stroke-width="3" marker-end="url(#arrow)"/>
<rect x="790" y="655" width="580" height="105" rx="24" fill="#0B1C25" fill-opacity="1" stroke="#FFB454" stroke-width="2"/>
<text x="1080" y="699" fill="#FFB454" fill-opacity="1" font-family="Inter,Segoe UI,Arial,sans-serif" font-size="30" font-weight="850" text-anchor="middle">PREFLIGHT_READY</text>
<text x="1080" y="733" fill="#8EABC0" fill-opacity="1" font-family="Inter,Segoe UI,Arial,sans-serif" font-size="20" font-weight="500" text-anchor="middle">resumable protocol checkpoint</text>
<rect x="625" y="835" width="190" height="88" rx="22" fill="#101D2A" fill-opacity="1" stroke="#31D7FF" stroke-width="2"/>
<text x="720" y="890" fill="#31D7FF" fill-opacity="1" font-family="Inter,Segoe UI,Arial,sans-serif" font-size="23" font-weight="850" text-anchor="middle">PLAN</text>
<rect x="865" y="835" width="190" height="88" rx="22" fill="#101D2A" fill-opacity="1" stroke="#4F8CFF" stroke-width="2"/>
<text x="960" y="890" fill="#4F8CFF" fill-opacity="1" font-family="Inter,Segoe UI,Arial,sans-serif" font-size="23" font-weight="850" text-anchor="middle">EXECUTE</text>
<rect x="1105" y="835" width="190" height="88" rx="22" fill="#101D2A" fill-opacity="1" stroke="#4DE1A8" stroke-width="2"/>
<text x="1200" y="890" fill="#4DE1A8" fill-opacity="1" font-family="Inter,Segoe UI,Arial,sans-serif" font-size="23" font-weight="850" text-anchor="middle">VERIFY</text>
<rect x="1345" y="835" width="190" height="88" rx="22" fill="#101D2A" fill-opacity="1" stroke="#B78CFF" stroke-width="2"/>
<text x="1440" y="890" fill="#B78CFF" fill-opacity="1" font-family="Inter,Segoe UI,Arial,sans-serif" font-size="23" font-weight="850" text-anchor="middle">REVIEW</text>
<line x1="815" y1="879" x2="851" y2="879" stroke="#4D7187" stroke-opacity="1" stroke-width="3" marker-end="url(#arrow)"/>
<line x1="1055" y1="879" x2="1091" y2="879" stroke="#4D7187" stroke-opacity="1" stroke-width="3" marker-end="url(#arrow)"/>
<line x1="1295" y1="879" x2="1331" y2="879" stroke="#4D7187" stroke-opacity="1" stroke-width="3" marker-end="url(#arrow)"/>
<path d="M 1440 923 C 1440 1005, 720 1005, 720 923" fill="none" stroke="#4D7187" stroke-width="3" stroke-dasharray="8 8" marker-end="url(#arrow)"/>
<text x="1080" y="1008" fill="#8EABC0" fill-opacity="1" font-family="Inter,Segoe UI,Arial,sans-serif" font-size="19" font-weight="500" text-anchor="middle">diagnose → correct → retry with new evidence</text>
<rect x="685" y="1050" width="790" height="70" rx="20" fill="#091A22" fill-opacity="1" stroke="#315266" stroke-width="2"/>
<text x="1080" y="1093" fill="#D5EAF5" fill-opacity="1" font-family="Inter,Segoe UI,Arial,sans-serif" font-size="21" font-weight="800" text-anchor="middle">AUDIT  •  COMPLETE  •  VALIDATE-PROTOCOL</text>
<rect x="1640" y="320" width="675" height="835" rx="30" fill="#0D1722" fill-opacity="1" stroke="#244153" stroke-width="2"/>
<text x="1685" y="380" fill="#ECF6FF" fill-opacity="1" font-family="Inter,Segoe UI,Arial,sans-serif" font-size="34" font-weight="800" text-anchor="start">State, Search &amp; Outputs</text>
<text x="1685" y="417" fill="#8EABC0" fill-opacity="1" font-family="Inter,Segoe UI,Arial,sans-serif" font-size="21" font-weight="500" text-anchor="start">Durable context without turning cache into authority</text>
<rect x="1685" y="465" width="585" height="135" rx="22" fill="#101D2A" fill-opacity="1" stroke="#FFB454" stroke-width="2"/>
<text x="1713" y="513" fill="#FFB454" fill-opacity="1" font-family="Inter,Segoe UI,Arial,sans-serif" font-size="27" font-weight="800" text-anchor="start">Task State</text>
<text x="1713" y="549" fill="#8EABC0" fill-opacity="1" font-family="Inter,Segoe UI,Arial,sans-serif" font-size="18" font-weight="500" text-anchor="start">work-state • activation events • revisioned</text>
<text x="1713" y="576" fill="#8EABC0" fill-opacity="1" font-family="Inter,Segoe UI,Arial,sans-serif" font-size="18" font-weight="500" text-anchor="start">writes</text>
<rect x="1685" y="625" width="585" height="135" rx="22" fill="#101D2A" fill-opacity="1" stroke="#4DE1A8" stroke-width="2"/>
<text x="1713" y="673" fill="#4DE1A8" fill-opacity="1" font-family="Inter,Segoe UI,Arial,sans-serif" font-size="27" font-weight="800" text-anchor="start">Event Ledger</text>
<text x="1713" y="709" fill="#8EABC0" fill-opacity="1" font-family="Inter,Segoe UI,Arial,sans-serif" font-size="18" font-weight="500" text-anchor="start">append-only • hash chained • recoverable journal</text>
<rect x="1685" y="785" width="585" height="135" rx="22" fill="#101D2A" fill-opacity="1" stroke="#31D7FF" stroke-width="2"/>
<text x="1713" y="833" fill="#31D7FF" fill-opacity="1" font-family="Inter,Segoe UI,Arial,sans-serif" font-size="27" font-weight="800" text-anchor="start">Repository Index</text>
<text x="1713" y="869" fill="#8EABC0" fill-opacity="1" font-family="Inter,Segoe UI,Arial,sans-serif" font-size="18" font-weight="500" text-anchor="start">provider-neutral search • verified tgrep engine</text>
<rect x="1685" y="945" width="585" height="135" rx="22" fill="#101D2A" fill-opacity="1" stroke="#B78CFF" stroke-width="2"/>
<text x="1713" y="993" fill="#B78CFF" fill-opacity="1" font-family="Inter,Segoe UI,Arial,sans-serif" font-size="27" font-weight="800" text-anchor="start">Protocol Outcome</text>
<text x="1713" y="1029" fill="#8EABC0" fill-opacity="1" font-family="Inter,Segoe UI,Arial,sans-serif" font-size="18" font-weight="500" text-anchor="start">VALID • INCOMPLETE • STALE • INCONSISTENT •</text>
<text x="1713" y="1056" fill="#8EABC0" fill-opacity="1" font-family="Inter,Segoe UI,Arial,sans-serif" font-size="18" font-weight="500" text-anchor="start">INVALID</text>
<line x1="1370" y1="707" x2="1670" y2="532" stroke="#4D7187" stroke-opacity="1" stroke-width="3" stroke-dasharray="7 7" marker-end="url(#arrow)"/>
<line x1="1475" y1="1085" x2="1670" y2="1012" stroke="#4D7187" stroke-opacity="1" stroke-width="3" marker-end="url(#arrow)"/>
<line x1="515" y1="620" x2="1670" y2="852" stroke="#345A70" stroke-opacity="0.6" stroke-width="2" stroke-dasharray="7 9" marker-end="url(#arrow)"/>
<text x="1515" y="797" fill="#8EABC0" fill-opacity="1" font-family="Inter,Segoe UI,Arial,sans-serif" font-size="17" font-weight="500" text-anchor="middle">shared search service</text>
<text x="95" y="1245" fill="#8EABC0" fill-opacity="1" font-family="Inter,Segoe UI,Arial,sans-serif" font-size="17" font-weight="800" text-anchor="start">FLOW</text>
<text x="155" y="1245" fill="#C8DDEA" fill-opacity="1" font-family="Inter,Segoe UI,Arial,sans-serif" font-size="21" font-weight="600" text-anchor="start">request → discover → contract → route → preflight → plan → execute → verify → review → evidence-backed result</text>
<text x="95" y="1296" fill="#68879A" fill-opacity="1" font-family="Inter,Segoe UI,Arial,sans-serif" font-size="18" font-weight="500" text-anchor="start">Source: cassiomc1/forgeloop • LOOP_SYSTEM_DESIGN.md • package.json</text>
<text x="2305" y="1296" fill="#68879A" fill-opacity="1" font-family="Inter,Segoe UI,Arial,sans-serif" font-size="18" font-weight="500" text-anchor="end">ForgeLoop</text>
</svg>
